# xmcd
#
# Track frame offsets:
#	187
#	11092
#	45162
#	66895
#	86277
#	105432
#	129945
#	146227
#	154702
#	164145
#	198295
#	212657
#
# Disc length: 3057 seconds
#
# Revision: 1
# Processed by: cddbd v1.5.1PL0 Copyright (c) Steve Scherf et al.
# Submitted via: CDex 1.50Beta5
#
DISCID=9b0bef0c
DTITLE=THE PHILADELPHIA ORCHESTRA EUGENE ORMANDY - SPECTACULAR MARCHES
DYEAR=1900
DGENRE=Classical
TTITLE0=闘牛士の行進曲(歌劇カルメンより)
TTITLE1=大行進曲(歌劇タンホイザーより)
TTITLE2=軍隊行進曲
TTITLE3=しゅう長の行列(組曲コーカサスの風景より)
TTITLE4=戴冠式行進曲(歌劇予言者より)
TTITLE5=結婚行進曲(劇音楽真夏の夜の夢より)
TTITLE6=婚礼の行列(歌劇金鶏より)
TTITLE7=行進曲(組曲三つのオレンジへの恋より)
TTITLE8=トルコ行進曲(劇音楽アテネの廃墟より)
TTITLE9=大行進曲(歌劇アイーダより)
TTITLE10=ラデっキー行進曲・作品228
TTITLE11=星条旗よ永遠なれ
EXTD=
EXTT0=
EXTT1=
EXTT2=
EXTT3=
EXTT4=
EXTT5=
EXTT6=
EXTT7=
EXTT8=
EXTT9=
EXTT10=
EXTT11=
PLAYORDER=
